<svg viewBox="0 0 28 28" fill="none" xmlns="http://www.w3.org/2000/svg">
<path d="M8.12 0H19.88C24.36 0 28 3.64 28 8.12V19.88C28 22.0336 27.1445 24.0989 25.6217 25.6217C24.0989 27.1445 22.0336 28 19.88 28H8.12C3.64 28 0 24.36 0 19.88V8.12C0 5.96644 0.855498 3.90109 2.37829 2.37829C3.90109 0.855498 5.96644 0 8.12 0ZM7.84 2.8C6.50331 2.8 5.22137 3.331 4.27618 4.27618C3.331 5.22137 2.8 6.50331 2.8 7.84V20.16C2.8 22.946 5.054 25.2 7.84 25.2H20.16C21.4967 25.2 22.7786 24.669 23.7238 23.7238C24.669 22.7786 25.2 21.4967 25.2 20.16V7.84C25.2 5.054 22.946 2.8 20.16 2.8H7.84ZM21.35 4.9C21.8141 4.9 22.2592 5.08437 22.5874 5.41256C22.9156 5.74075 23.1 6.18587 23.1 6.65C23.1 7.11413 22.9156 7.55925 22.5874 7.88744C22.2592 8.21562 21.8141 8.4 21.35 8.4C20.8859 8.4 20.4408 8.21562 20.1126 7.88744C19.7844 7.55925 19.6 7.11413 19.6 6.65C19.6 6.18587 19.7844 5.74075 20.1126 5.41256C20.4408 5.08437 20.8859 4.9 21.35 4.9ZM14 7C15.8565 7 17.637 7.7375 18.9497 9.05025C20.2625 10.363 21 12.1435 21 14C21 15.8565 20.2625 17.637 18.9497 18.9497C17.637 20.2625 15.8565 21 14 21C12.1435 21 10.363 20.2625 9.05025 18.9497C7.7375 17.637 7 15.8565 7 14C7 12.1435 7.7375 10.363 9.05025 9.05025C10.363 7.7375 12.1435 7 14 7ZM14 9.8C12.8861 9.8 11.8178 10.2425 11.0302 11.0302C10.2425 11.8178 9.8 12.8861 9.8 14C9.8 15.1139 10.2425 16.1822 11.0302 16.9698C11.8178 17.7575 12.8861 18.2 14 18.2C15.1139 18.2 16.1822 17.7575 16.9698 16.9698C17.7575 16.1822 18.2 15.1139 18.2 14C18.2 12.8861 17.7575 11.8178 16.9698 11.0302C16.1822 10.2425 15.1139 9.8 14 9.8Z" fill="currentColor"/>
</svg>
