<svg viewBox="0 0 52 52" fill="inherit" xmlns="http://www.w3.org/2000/svg">
<g  clip-path="url(#clip0_881_1264)">
<path id="Vector" d="M48.5907 14.2316C46.8238 14.2316 45.1446 14.2188 43.4658 14.2418C43.1023 14.2467 42.9939 14.0141 42.8472 13.7957C41.6759 12.0036 40.216 10.4137 38.5254 9.08914C35.9229 7.09489 32.8141 5.85231 29.5429 5.49882C24.8564 4.94632 20.364 5.55213 16.2352 7.91074C10.7091 11.0676 7.36049 15.8339 6.30958 22.0551C5.22768 28.4598 6.7863 34.2596 11.0546 39.2266C14.3956 43.1145 18.6583 45.4631 23.7829 46.1455C27.8539 46.6876 31.7983 46.2569 35.4881 44.3247C37.9492 43.0359 39.9695 41.2062 41.8104 39.1658C42.2783 38.6471 42.7235 38.1082 43.174 37.5742C43.3121 37.4105 43.4323 37.2736 43.6899 37.2756C45.3645 37.2888 47.0392 37.2824 48.7889 37.2824C47.7898 39.1396 46.5993 40.8894 45.2365 42.504C41.4463 46.9672 36.6323 49.6447 30.8208 50.4634C23.7971 51.4529 17.2114 50.2309 11.3488 46.1346C5.99488 42.3936 2.74639 37.2339 1.54389 30.8478C0.491168 25.2572 1.05859 19.8229 3.55565 14.6742C6.95152 7.67221 12.5573 3.32307 20.1457 1.55643C25.2483 0.334544 30.6027 0.643628 35.5274 2.44435C41.4371 4.58054 45.8421 8.42785 48.5907 14.2316Z" fill="currentColor"/>
<path id="Vector_2" d="M24.145 18.5647C24.2187 20.3982 24.3322 22.2311 24.3567 24.0652C24.3934 26.8109 24.3565 29.5576 24.3791 32.3037C24.3828 32.7541 24.2541 32.875 23.8124 32.8563C22.984 32.8212 22.1527 32.8335 21.3232 32.8524C20.9922 32.86 20.837 32.8132 20.8379 32.4186C20.8512 26.5881 20.8516 20.7577 20.8392 14.9272C20.8385 14.5569 20.9582 14.4683 21.3118 14.4726C22.7587 14.4902 24.2061 14.494 25.6528 14.4709C26.0559 14.4644 26.2291 14.57 26.3544 14.978C27.6859 19.3102 29.0454 23.6339 30.3979 27.9597C30.4531 28.1362 30.5156 28.3105 30.6147 28.6046C31.162 26.9607 31.6753 25.425 32.1844 23.8879C33.1653 20.9263 34.154 17.9672 35.1118 14.9983C35.2471 14.5791 35.4307 14.4593 35.8629 14.4685C37.288 14.4988 38.7145 14.4955 40.1398 14.4699C40.5374 14.4628 40.635 14.5723 40.6341 14.961C40.6215 20.7704 40.621 26.5797 40.6324 32.389C40.633 32.7289 40.5712 32.8679 40.1895 32.8555C39.2967 32.8264 38.4011 32.819 37.509 32.8574C37.0457 32.8773 36.9532 32.7206 36.9572 32.2902C36.9979 27.8549 36.8722 23.4175 37.1486 18.9854C37.1571 18.8489 37.1497 18.7114 37.1497 18.5112C36.8886 18.7032 36.8869 18.9552 36.8196 19.1569C35.3591 23.5363 33.9087 27.9189 32.4682 32.3048C32.3235 32.7479 32.1214 32.8776 31.6741 32.8565C30.8878 32.8126 30.0996 32.8138 29.3134 32.8603C28.8104 32.8946 28.6286 32.7097 28.4905 32.257C27.1432 27.8414 25.7829 23.4298 24.4096 19.022C24.3618 18.8675 24.3098 18.7143 24.2598 18.5605L24.145 18.5647Z" fill="currentColor"/>
<path id="Vector_3" d="M16.2001 23.655C16.2001 26.5276 16.1871 29.4002 16.2127 32.2726C16.2171 32.7568 16.0861 32.8772 15.6126 32.8579C14.6567 32.8188 13.6978 32.8344 12.7407 32.8527C12.4125 32.859 12.2588 32.8198 12.2598 32.4248C12.2736 26.5952 12.2744 20.7656 12.2622 14.936C12.2616 14.5869 12.3433 14.4616 12.7161 14.4714C13.6942 14.4969 14.6744 14.5049 15.6518 14.469C16.1119 14.4521 16.2129 14.6025 16.21 15.0374C16.1908 17.9098 16.2001 20.7824 16.2001 23.655Z" fill="currentColor"/>
<path id="Vector_4" d="M19.2995 34.5278C19.2995 35.1096 19.3029 35.6915 19.2974 36.2733C19.2958 36.4454 19.3743 36.6588 19.0444 36.6576C18.7571 36.6565 18.685 36.5501 18.6897 36.2849C18.7032 35.5249 18.6866 34.7643 18.7001 34.0043C18.7033 33.8232 18.5736 33.5275 18.9177 33.5146C19.1913 33.5043 19.5007 33.391 19.6968 33.7557C20.0285 34.3947 20.4366 34.9918 20.9124 35.5341C20.9124 34.9784 20.9147 34.4227 20.9112 33.8671C20.91 33.6628 20.9122 33.498 21.2031 33.497C21.4907 33.496 21.4993 33.6526 21.4981 33.8611C21.4936 34.6214 21.5081 35.382 21.4874 36.1417C21.4828 36.3112 21.6565 36.6177 21.304 36.6378C21.013 36.6544 20.6839 36.7659 20.4803 36.3701C20.1526 35.7331 19.7702 35.1237 19.411 34.5027L19.2995 34.5278Z" fill="currentColor"/>
<path id="Vector_5" d="M36.7983 35.6014C36.7983 35.0412 36.797 34.4809 36.7991 33.9206C36.7998 33.717 36.745 33.4976 37.0928 33.4959C37.4166 33.4942 37.4165 33.6732 37.4151 33.9004C37.4106 34.6378 37.4247 35.3756 37.4053 36.1125C37.4007 36.2903 37.5612 36.5963 37.2433 36.6305C36.9392 36.6631 36.5893 36.7815 36.37 36.3513C36.0466 35.717 35.6493 35.1199 35.2815 34.5081C35.2752 34.4975 35.2447 34.5013 35.2042 34.4952C35.2042 35.0321 35.2203 35.5673 35.1959 36.1007C35.1867 36.3035 35.3765 36.6354 34.9191 36.6534C34.4554 36.6715 34.6199 36.3393 34.6151 36.1312C34.5989 35.4363 34.5993 34.7411 34.6161 34.0456C34.6207 33.8643 34.4694 33.5653 34.7781 33.5224C35.0661 33.4823 35.4039 33.3865 35.6102 33.7722C35.9468 34.4015 36.3226 35.0101 36.6818 35.6274L36.7983 35.6014Z" fill="currentColor"/>
<path id="Vector_6" d="M18.0432 35.1054C18.0343 36.1316 17.5185 36.6773 16.5571 36.6779C15.5763 36.6784 15.0566 36.1105 15.0645 35.0466C15.0721 34.0296 15.597 33.4747 16.5536 33.4724C17.531 33.4701 18.0525 34.0418 18.0432 35.1054ZM15.7464 35.0872C15.7513 35.7635 16.0608 36.1505 16.583 36.1332C17.0932 36.1163 17.3783 35.7132 17.3618 35.0324C17.3462 34.3878 17.0518 34.0125 16.5608 34.0114C16.056 34.0102 15.7415 34.4256 15.7464 35.0872Z" fill="currentColor"/>
<path id="Vector_7" d="M27.3178 34.7181C27.3177 34.9287 27.3212 35.1395 27.3171 35.35C27.2962 36.4295 26.3817 37.0062 25.3772 36.5755C25.1953 36.5104 25.0374 36.3927 24.9239 36.2376C24.8105 36.0825 24.7467 35.8972 24.7409 35.7058C24.7132 35.0752 24.7239 34.4429 24.7073 33.8116C24.7004 33.5516 24.8323 33.5017 25.0611 33.4985C25.3102 33.495 25.399 33.5891 25.3949 33.8316C25.3858 34.3792 25.3953 34.927 25.3955 35.4747C25.3957 35.8709 25.5592 36.1214 25.9888 36.1339C26.4143 36.1463 26.6152 35.9115 26.6283 35.5162C26.6457 34.9902 26.6434 34.4633 26.641 33.9368C26.6399 33.6905 26.6291 33.4908 26.9919 33.4937C27.3769 33.4967 27.3151 33.7346 27.3173 33.9597C27.3197 34.2125 27.3178 34.4653 27.3178 34.7181Z" fill="currentColor"/>
<path id="Vector_8" d="M40.6511 35.749C40.5463 36.0117 40.9005 36.4795 40.2918 36.6241C39.3677 36.8436 38.563 36.6265 38.269 35.9852C37.9605 35.312 37.9392 34.616 38.4239 34.0106C38.8906 33.4278 39.5587 33.4013 40.2323 33.5332C40.3676 33.5597 40.6737 33.5114 40.5833 33.8415C40.5156 34.0888 40.3854 34.1421 40.1167 34.0937C39.082 33.9073 38.4848 34.6242 38.836 35.602C38.9766 35.9932 39.2666 36.1515 39.676 36.1386C39.8706 36.1326 40.0192 36.0957 39.9964 35.8623C39.98 35.6945 40.0926 35.4359 39.773 35.4441C39.499 35.4511 39.3719 35.3565 39.4126 35.0778C39.4576 34.77 39.7023 34.8942 39.8657 34.8875C40.6509 34.8551 40.6511 34.8609 40.6511 35.749Z" fill="currentColor"/>
<path id="Vector_9" d="M22.1571 35.9215C22.5055 36.0228 22.7965 36.1696 23.1277 36.1363C23.3095 36.118 23.4642 36.058 23.5017 35.8582C23.512 35.784 23.497 35.7086 23.459 35.6439C23.4211 35.5792 23.3624 35.5289 23.2923 35.5009C23.0906 35.3847 22.8784 35.2866 22.6769 35.1702C22.2639 34.9316 22.0695 34.5865 22.1998 34.1094C22.3262 33.6471 22.6873 33.5048 23.1211 33.4785C23.2261 33.4595 23.334 33.4627 23.4376 33.4882C23.6689 33.5837 24.1191 33.4204 24.0654 33.8731C24.0108 34.3333 23.664 34.0813 23.4236 34.041C23.2048 34.0043 22.9734 33.9791 22.868 34.2124C22.736 34.5046 22.9787 34.6212 23.1858 34.7363C23.2227 34.7568 23.2643 34.7687 23.3017 34.7885C24.1081 35.2156 24.3379 35.606 24.0985 36.1414C23.8846 36.6201 23.0497 36.849 22.3932 36.609C22.1084 36.5049 22.1084 36.5049 22.1571 35.9215Z" fill="currentColor"/>
<path id="Vector_10" d="M13.8041 36.6727C13.0962 36.6959 12.5879 36.5165 12.3726 35.912C12.1207 35.2049 12.0909 34.486 12.6406 33.8913C13.0929 33.4021 13.6835 33.3887 14.2926 33.5707C14.4647 33.6221 14.6312 33.661 14.5333 33.9053C14.4565 34.0968 14.3862 34.2372 14.1253 34.1215C13.7454 33.9529 13.3515 33.9473 13.1036 34.3324C12.9641 34.5472 12.8859 34.7953 12.877 35.0504C12.8681 35.3056 12.929 35.5584 13.0532 35.7821C13.2636 36.1977 13.6667 36.1615 14.0611 36.1051C14.2107 36.0837 14.4364 35.8468 14.4901 36.2151C14.5287 36.4798 14.3951 36.6093 14.1433 36.6394C13.9958 36.6571 13.8474 36.6685 13.8041 36.6727Z" fill="currentColor"/>
<path id="Vector_11" d="M31.1377 35.3401C31.1259 35.1088 31.1275 34.8771 31.1425 34.6461C31.1907 34.2338 31.0856 33.9959 30.609 34.0719C30.375 34.1091 30.2618 34.0197 30.2678 33.7608C30.2736 33.5131 30.4106 33.5005 30.5978 33.5021C31.1702 33.5068 31.7427 33.5045 32.3151 33.5032C32.4931 33.5027 32.6542 33.5031 32.6659 33.7509C32.6779 34.0046 32.558 34.1101 32.3243 34.0705C31.8423 33.9887 31.7698 34.2271 31.7948 34.6362C31.828 35.1814 31.7946 35.7303 31.8067 36.2773C31.8121 36.5203 31.7878 36.6625 31.476 36.6599C31.18 36.6575 31.1195 36.5443 31.1336 36.2869C31.1509 35.9722 31.1377 35.6558 31.1377 35.3401Z" fill="currentColor"/>
<path id="Vector_12" d="M28.0965 35.0285C28.0965 34.6506 28.1003 34.2726 28.0951 33.8948C28.092 33.671 28.0893 33.4942 28.4143 33.4941C28.7162 33.4941 28.7615 33.6248 28.757 33.8731C28.7465 34.4607 28.7802 35.0503 28.7446 35.636C28.72 36.0403 28.8687 36.1624 29.2488 36.115C29.4361 36.0916 29.629 36.1162 29.8192 36.111C30.0451 36.1048 30.0302 36.2569 30.034 36.4081C30.0377 36.5532 30.0005 36.6486 29.8301 36.6479C29.3226 36.6456 28.815 36.6468 28.3075 36.6478C28.0269 36.6484 28.1015 36.4385 28.099 36.288C28.0919 35.8683 28.0965 35.4483 28.0965 35.0285Z" fill="currentColor"/>
<path id="Vector_13" d="M33.8419 35.0816C33.8419 35.4814 33.8306 35.8817 33.846 36.2809C33.8558 36.5322 33.8103 36.6586 33.5083 36.6596C33.2045 36.6607 33.1667 36.5303 33.1701 36.2814C33.181 35.4819 33.179 34.6822 33.1712 33.8827C33.1689 33.6405 33.2012 33.4947 33.509 33.4939C33.8189 33.4931 33.8514 33.6401 33.8448 33.8823C33.834 34.2818 33.8419 34.6818 33.8419 35.0816Z" fill="currentColor"/>
</g>
</svg>
