<svg  viewBox="0 0 24 24" fill="none" xmlns="http://www.w3.org/2000/svg">
<path d="M11.712 0C9.81381 0 5.11838 0.191235 2.62081 2.48606C0.822557 4.11155 0.123238 6.59761 0.0233349 9.56175C-0.176471 14.247 0.92246 17.2112 2.72071 18.741C3.12032 19.0279 4.11935 19.7928 6.0175 20.3665V22.757C6.0175 22.757 6.0175 23.7131 6.61692 23.9044C6.71682 23.9044 6.81672 24 6.91663 24C7.51604 24 8.01556 23.3307 8.71488 22.6614C9.31429 21.992 9.81381 21.5139 10.1135 21.0359H12.3114C14.2095 21.0359 18.905 20.8446 21.4025 18.5498C23.2008 16.8287 23.9001 14.3426 23.9001 11.1873C24 10.7092 24 10.1355 24 9.56175C23.9001 6.0239 22.8012 3.63347 21.3026 2.29482C20.7032 1.81673 18.1057 0 12.5112 0H11.712ZM11.5122 1.81673H12.4113C17.7061 1.81673 19.7042 3.44223 19.904 3.63347C21.1028 4.58964 21.8021 6.69323 21.902 9.46614V9.84861C22.0019 10.4223 22.0019 10.9004 22.0019 11.1873C21.902 14.0558 21.3026 15.9681 20.1038 17.2112C18.0058 19.0279 13.6101 19.1235 12.4113 19.1235H10.5131L8.91468 20.8446L7.91565 21.8964L7.71585 22.1833C7.51604 22.3745 7.21633 22.757 7.01653 22.8526V18.5498C5.01847 18.0717 4.21925 17.4024 4.01945 17.2112C2.62081 16.0637 1.82158 13.2908 2.02139 9.56175V8.60558C2.2212 6.31076 2.82061 4.78088 3.81964 3.72908C5.9176 1.91235 10.3133 1.81673 11.5122 1.81673ZM11.4123 3.92032C10.9127 3.92032 10.9127 4.58964 11.4123 4.58964C15.1087 4.58964 18.3055 6.98008 18.3055 11.4741C18.3055 11.9522 19.0049 11.9522 19.0049 11.4741C19.0049 6.59761 15.6082 3.8247 11.4123 3.92032ZM7.4531 4.80478C7.22675 4.77882 6.99874 4.83852 6.81772 4.97116C5.81869 5.44924 4.81867 6.40733 5.11838 7.45912C5.11838 7.45912 5.31818 8.31873 6.41711 10.1355C7.01653 10.996 7.51604 11.761 8.01556 12.3347C8.51507 13.004 9.31429 13.7689 10.1135 14.3426C11.712 15.5857 14.2095 16.8287 15.3085 17.1155C16.3075 17.4024 17.4064 16.4462 17.9059 15.49C18.1057 15.1076 18.0058 14.6295 17.6062 14.3426C17.0068 13.7689 16.0078 13.0996 15.3085 12.7171C14.8089 12.4303 14.2095 12.6215 14.0097 12.9084L13.5102 13.4821C13.3104 13.7689 12.8109 13.7689 12.8109 13.7689C9.5141 12.9084 8.61497 9.65737 8.61497 9.65737C8.61497 9.65737 8.61497 9.2749 8.91468 8.98805L9.5141 8.50996C9.81381 8.31872 10.0136 7.74502 9.7139 7.26693C9.5141 6.98008 9.21439 6.40637 8.91468 6.11952C8.61497 5.73705 8.01556 5.06773 8.01556 5.06773C7.86398 4.92246 7.66599 4.8299 7.4531 4.80478ZM12.1116 5.83267C11.6121 5.73705 11.5122 6.50199 12.0117 6.50199C14.8089 6.69323 16.4074 8.50996 16.3075 10.8048C16.2076 11.2829 17.0068 11.2829 17.0068 10.8048C17.1067 8.12749 15.3085 5.92829 12.1116 5.83267ZM12.4113 7.6494C11.9118 7.55378 11.9118 8.31872 12.4113 8.31872C13.6101 8.31872 14.2095 8.98805 14.2095 10.1355C14.3094 10.6135 15.0088 10.6135 15.0088 10.1355C14.9088 8.60558 14.0097 7.6494 12.4113 7.6494Z" fill="currentColor"/>
</svg>
